PathFileType  4	(X/Y/Z) C:\Users\antoi\Documents\MyRepositories\mobilecap\ResultsAnalysis
DataRate	CameraRate	NumFrames	NumMarkers	Units	OrigDataRate	OrigDataStartFrame	OrigNumFrames
100.0	100.0	7	51	mm	100.0	1	145
Frame#	Time	r_knee			r_shank_antsup			r_ankle			r_calc			r_5meta			r_toe			L_knee			L_shank_antsup			L_ankle			L_calc			L_5meta			L_toe			r_sh2			r_sh3			r_sh4			L_sh2			L_sh3			r_thigh1			r_thigh2			r_thigh3			r_thigh4			r_thigh5			L_thigh1			L_thigh2			L_thigh3			L_thigh4			r.ASIS			r.PSIS			L.ASIS			L.PSIS			C7			R_Shoulder			L_Shoulder			R_Sternum			L_Sternum			R_humerus			R_elbow_med			R_elbow_lat			R_forearm			R_wrist_radius			R_wrist_ulna			L_humerus			L_elbow_med			L_elbow_lat			L_forearm			L_wrist_radius			L_wrist_ulna			R_HJC			L_HJC			R_HJC_reg			L_HJC_reg			
		X1	Y1	Z1	X2	Y2	Z2	X3	Y3	Z3	X4	Y4	Z4	X5	Y5	Z5	X6	Y6	Z6	X7	Y7	Z7	X8	Y8	Z8	X9	Y9	Z9	X10	Y10	Z10	X11	Y11	Z11	X12	Y12	Z12	X13	Y13	Z13	X14	Y14	Z14	X15	Y15	Z15	X16	Y16	Z16	X17	Y17	Z17	X18	Y18	Z18	X19	Y19	Z19	X20	Y20	Z20	X21	Y21	Z21	X22	Y22	Z22	X23	Y23	Z23	X24	Y24	Z24	X25	Y25	Z25	X26	Y26	Z26	X27	Y27	Z27	X28	Y28	Z28	X29	Y29	Z29	X30	Y30	Z30	X31	Y31	Z31	X32	Y32	Z32	X33	Y33	Z33	X34	Y34	Z34	X35	Y35	Z35	X36	Y36	Z36	X37	Y37	Z37	X38	Y38	Z38	X39	Y39	Z39	X40	Y40	Z40	X41	Y41	Z41	X42	Y42	Z42	X43	Y43	Z43	X44	Y44	Z44	X45	Y45	Z45	X46	Y46	Z46	X47	Y47	Z47	X48	Y48	Z48	X49	Y49	Z49	X50	Y50	Z50	X51	Y51	Z51	

1	0.00000000	68.71607	484.40053	-65.50757	127.43319	437.65917	-88.73276	173.92909	97.71513	-100.35547	113.01502	61.52898	-137.38329	290.15971	58.30294	-79.18412	330.21293	100.40441	-131.14198	-258.88947	480.40091	-305.37808	-266.74605	377.89802	-310.17507	-453.37227	126.84675	-257.84186	-527.18855	105.31179	-205.99168	-375.93265	39.52099	-308.46846	-323.64186	54.43250	-258.49960	143.87533	323.34002	-69.53235	50.20109	422.86836	-53.35782	68.91396	311.94986	-57.75132	-345.05537	426.89966	-305.83620	-398.45021	315.61892	-302.62053	13.46772	799.61667	-26.81005	50.84287	691.60926	-38.46231	7.11579	650.97847	-5.57673	-89.29085	758.95409	1.49868	-52.63861	651.05610	-11.55748	-259.61311	755.32129	-314.49328	-281.94347	618.34555	-291.97252	-161.38936	727.75792	-373.35775	-183.99919	596.75417	-341.27628	-8.41019	936.02201	-75.99219	-210.78908	978.43748	-111.16230	-50.66732	912.32238	-324.49512	-234.31994	982.88076	-209.52146	-231.47078	1379.38867	-199.58693	-124.59547	1352.94254	-23.54097	-149.58275	1349.13176	-382.22035	-87.13322	1355.44798	-185.10673	-86.93109	1356.68891	-225.99213	-137.49310	1217.70007	39.04915	-228.29878	1020.81076	-7.08387	-222.95056	1039.15397	62.79153	-189.16448	909.05061	104.89353	-194.37868	773.56913	129.59862	-229.55457	778.58129	146.26489	-95.50660	1247.55190	-442.68165	-23.16397	1017.96117	-397.84279	-12.61748	1053.49401	-467.75149	101.38412	1038.06209	-454.04057	245.57012	974.95600	-443.85885	235.04186	952.85259	-469.21071	-90.89637	858.33342	-77.53548	-133.10948	848.01905	-279.38131	-82.49576	847.09274	-97.55316	-121.33700	854.42720	-259.91004	
2	0.01000000	80.44609	484.99129	-64.59439	138.14787	436.68341	-88.10585	176.99723	96.32994	-100.40768	115.48260	63.46456	-138.91774	291.53345	53.99577	-78.50833	333.40025	94.19138	-130.80699	-244.98643	479.82926	-305.19983	-255.06796	377.25927	-310.15947	-449.24087	132.10854	-258.55253	-523.07377	113.12218	-206.44760	-374.96429	40.26708	-308.51637	-321.93535	53.96988	-258.98978	152.70771	322.10270	-69.14481	60.99385	423.10824	-51.99672	77.73495	311.92589	-56.69283	-332.11152	428.38919	-305.67331	-388.61480	318.69337	-302.41532	27.11290	801.14032	-26.76693	64.18062	692.84308	-38.80120	20.78682	652.64163	-4.98849	-75.10526	761.12465	3.07623	-39.15859	652.85986	-9.82326	-246.35565	754.36651	-312.63377	-268.13243	617.10834	-290.66990	-148.53683	727.12704	-372.70581	-170.69981	596.03992	-340.92877	4.93180	937.84091	-75.95698	-197.82930	979.28696	-110.69041	-38.05035	911.91806	-323.91205	-221.53931	982.64554	-209.00928	-218.80919	1379.36612	-197.94925	-111.14084	1352.56305	-22.35283	-137.19128	1349.59464	-380.90104	-74.20739	1355.47951	-184.01286	-74.21916	1356.82069	-224.78875	-123.87826	1217.22952	39.99439	-214.95451	1020.48997	-6.26800	-209.62569	1038.90758	63.60084	-176.74054	908.68857	105.72213	-183.42258	773.22897	130.56519	-218.28687	778.81631	147.56743	-83.36962	1247.71617	-441.41284	-13.45999	1017.32014	-395.84974	-3.01736	1052.40695	-466.05197	110.96923	1036.41325	-452.09232	254.82881	972.68577	-441.52575	244.26212	950.58284	-466.44040	-77.26402	859.86956	-76.46282	-120.09730	847.66201	-278.05353	-69.09108	848.74525	-96.42901	-108.21202	854.28784	-258.65406	
3	0.02000000	92.16816	485.64841	-63.77213	148.79482	435.79013	-87.61512	179.91477	95.09637	-100.52463	117.74539	65.19739	-140.29609	292.83435	50.08504	-77.96202	336.35077	88.38340	-130.66548	-230.56180	479.17455	-305.12424	-242.98355	376.64753	-310.28415	-444.64004	137.54412	-259.28373	-518.49333	121.34624	-206.91440	-373.86099	41.16033	-308.54811	-320.14927	53.47595	-259.47601	161.43342	320.95039	-68.86119	71.73416	423.47341	-50.73284	86.45663	312.02152	-55.68259	-318.67423	429.92749	-305.56727	-378.32944	321.89804	-302.28525	40.68076	802.71900	-26.66293	77.48474	694.15832	-39.07717	34.41276	654.35910	-4.34640	-60.99900	763.28971	4.67076	-25.71306	654.68529	-8.08057	-232.91506	753.29922	-310.80730	-253.95729	615.74154	-289.44679	-135.44789	726.56623	-371.96300	-156.96923	595.32282	-340.59816	18.26700	939.69716	-75.86495	-184.86452	980.20007	-110.15077	-25.40589	911.64642	-323.27524	-208.75498	982.48524	-208.43076	-206.13817	1379.39701	-196.27680	-97.63220	1352.27053	-21.16374	-124.87929	1350.10954	-379.57481	-61.28745	1355.60446	-182.92111	-61.52502	1357.01350	-223.60625	-110.15967	1216.85493	40.93681	-201.52654	1020.25306	-5.43683	-196.19586	1038.73393	64.43376	-164.12752	908.40136	106.54607	-172.18142	772.96089	131.50960	-206.71561	779.09400	148.84595	-71.31545	1247.93161	-440.11548	-3.91278	1016.74311	-393.86719	6.46247	1051.37051	-464.36807	120.42855	1034.71489	-450.12624	263.87577	970.19232	-439.19401	253.25339	948.13574	-463.71433	-63.63093	861.44888	-75.36170	-107.06665	847.41853	-276.70119	-55.68433	850.48438	-95.26252	-95.08328	854.25456	-257.34287	
4	0.03000000	103.84301	486.42688	-63.10333	159.29725	435.04954	-87.36059	182.54179	94.12945	-100.74754	119.63567	66.58828	-141.41057	293.99504	46.87238	-77.62977	338.87792	83.30987	-130.83305	-215.19351	478.38341	-305.25949	-230.13388	376.07637	-310.67988	-439.17539	143.31453	-260.07328	-513.01407	130.33564	-207.40525	-372.51632	42.33337	-308.54419	-318.21799	52.93406	-259.95756	169.95513	319.95742	-68.76078	82.34732	424.06222	-49.63135	94.98475	312.33630	-54.77075	-304.31563	431.53519	-305.58578	-367.19832	325.32798	-302.30845	54.11771	804.39899	-26.44797	90.71394	695.61831	-39.22948	47.93046	656.17754	-3.60669	-47.04015	765.45909	6.28682	-12.34920	656.56483	-6.33644	-219.14816	752.02872	-309.05081	-239.11220	614.13384	-288.38082	-121.92207	726.12951	-371.06841	-142.45025	594.60373	-340.31580	31.57525	941.61485	-75.66004	-171.90377	981.22961	-109.49239	-12.71861	911.61533	-322.53687	-195.97173	982.46318	-207.73722	-193.45213	1379.53463	-194.54178	-84.02899	1352.13895	-19.97349	-112.71111	1350.72070	-378.23832	-48.38279	1355.90371	-181.83263	-48.86394	1357.32644	-222.47089	-96.25578	1216.65561	41.87422	-187.94214	1020.16687	-4.57664	-182.56736	1038.68937	65.30858	-151.16758	908.25013	107.36262	-160.42181	772.81938	132.41464	-194.59576	779.44305	150.07884	-59.42392	1248.23541	-438.77219	5.34436	1016.28050	-391.91291	15.72346	1050.43215	-462.71582	129.66024	1032.93192	-448.13586	272.52992	967.30049	-436.85882	261.82792	945.37167	-461.07080	-50.01560	863.10279	-74.20703	-94.01173	847.38178	-275.30539	-42.29263	852.37783	-94.01449	-81.95831	854.41307	-255.93092	
5	0.04000000	115.37868	487.35543	-62.60338	169.55729	434.50327	-87.37306	184.76853	93.48101	-101.08003	121.05571	67.59098	-142.22446	294.96157	44.50211	-77.52571	340.87761	79.16821	-131.30922	-198.63122	477.44457	-305.71404	-216.25454	375.54309	-311.45477	-432.57232	149.54264	-260.98033	-506.26105	140.32264	-207.93703	-370.86409	43.89756	-308.48376	-316.08775	52.36435	-260.44162	178.17607	319.17110	-68.87302	92.71945	424.92148	-48.71338	103.21903	312.92838	-54.00609	-288.73477	433.19630	-305.80734	-354.92835	329.02192	-302.56087	67.39481	806.20280	-26.08798	103.80345	697.24687	-39.20461	61.24108	658.12106	-2.74347	-33.29168	767.65883	7.91443	0.85558	658.53475	-4.61870	-204.98358	750.50120	-307.40645	-223.40119	612.20897	-287.54398	-107.83340	725.84466	-370.01304	-126.92372	593.89089	-340.13401	44.81147	943.59869	-75.29140	-158.98296	982.40776	-108.69547	-0.00020	911.89007	-321.66110	-183.21541	982.62152	-206.91148	-180.76080	1379.82951	-192.73060	-70.32299	1352.22035	-18.78513	-100.73319	1351.45881	-376.89435	-35.51561	1356.43382	-180.74862	-36.25567	1357.81165	-221.41320	-82.13333	1216.68164	42.80526	-174.15733	1020.27162	-3.67717	-168.67799	1038.80518	66.23529	-137.76019	908.27354	108.17138	-147.99544	772.83271	133.26996	-181.77889	779.87134	151.24912	-47.77648	1248.64315	-437.38504	14.21405	1015.96072	-390.01489	24.69606	1049.63096	-461.11173	138.59300	1031.05118	-446.13329	280.65742	963.91341	-434.50919	269.85715	942.21335	-458.53917	-36.47064	864.84418	-72.98155	-80.95229	847.60910	-273.85801	-28.96415	854.45980	-92.65318	-68.86825	854.81454	-254.38933	
6	0.05000000	126.63925	488.42212	-62.23663	179.45885	434.14591	-87.59080	186.53966	93.13083	-101.49062	121.99533	68.23918	-142.76288	295.70305	42.95140	-77.59671	342.33487	76.00217	-131.99438	-180.79002	476.37439	-306.58344	-201.18648	375.03649	-312.68361	-424.66541	156.29182	-262.07690	-497.91350	151.40794	-208.53285	-368.87659	45.94911	-308.34992	-313.70684	51.84269	-260.94851	185.98550	318.59246	-69.15807	102.70429	426.03199	-47.96760	111.03828	313.79791	-53.42704	-271.77141	434.87479	-306.30971	-341.33886	332.96887	-303.10439	80.50440	808.11420	-25.56142	116.66577	699.01129	-38.96108	74.21897	660.17495	-1.74901	-19.81496	769.91866	9.54150	13.79547	660.61447	-2.96501	-190.41342	748.69914	-305.91729	-206.74187	609.93085	-286.99901	-93.13746	725.71161	-368.84452	-110.31739	593.19955	-340.12216	57.91943	945.64073	-74.71976	-146.15250	983.74136	-107.77791	12.71800	912.49003	-320.62634	-170.52674	982.97737	-205.97195	-168.08650	1380.32599	-190.84712	-56.53625	1352.54332	-17.60628	-88.96727	1352.34029	-375.54999	-22.71410	1357.22015	-179.67161	-23.72033	1358.50838	-220.45649	-67.80841	1216.95014	43.73026	-160.15489	1020.58210	-2.73227	-154.49936	1039.08987	67.21689	-123.85538	908.48703	108.97412	-134.82370	773.00622	134.07121	-168.20025	780.37022	152.34809	-36.44997	1249.15161	-435.97616	22.64452	1015.79031	-388.20543	33.34250	1048.99061	-459.57041	147.18410	1029.07705	-444.14679	288.17909	960.00866	-432.13198	277.27265	938.64420	-456.13766	-23.06764	866.67096	-71.67850	-67.92189	848.11734	-272.36286	-15.75672	856.72825	-91.15727	-55.85686	855.47411	-252.70544	
7	0.06000000	137.46163	489.56658	-61.92835	188.87727	433.91628	-87.86218	187.86817	92.99848	-101.93123	122.52320	68.61022	-143.08495	296.21867	42.07149	-77.75079	343.30797	73.72288	-132.74389	-161.70802	475.19165	-307.93225	-184.87605	374.55215	-314.39670	-415.36539	163.54986	-263.42665	-487.70574	163.56873	-209.22219	-366.54572	48.57971	-308.13559	-311.01294	51.50659	-261.51380	193.25111	318.16757	-69.50681	112.14241	427.30913	-47.36860	118.29588	314.88159	-53.04810	-253.39776	436.54078	-307.14872	-326.35713	337.13114	-303.97019	93.44154	810.06919	-24.85236	129.19614	700.81699	-38.47065	86.72889	662.27484	-0.62871	-6.68013	772.25047	11.16578	26.34334	662.78416	-1.40669	-175.46904	746.62905	-304.61550	-189.15273	607.30311	-286.79443	-77.86827	725.70857	-367.65405	-92.68921	592.54870	-340.35233	70.84759	947.72939	-73.92574	-133.46174	985.21039	-106.79137	25.39640	913.39588	-319.42678	-157.95328	983.52257	-204.96677	-155.46206	1381.05488	-188.91289	-42.71447	1353.11536	-16.44939	-77.41415	1353.36830	-374.21331	-10.00638	1358.25365	-178.60732	-11.27810	1359.43501	-219.60311	-53.33657	1217.44998	44.65024	-145.93999	1021.09373	-1.73952	-140.03582	1039.53674	68.25278	-109.43887	908.88719	109.77336	-120.86520	773.33268	134.81802	-153.84815	780.92422	153.37775	-25.50899	1249.74819	-434.58113	30.62591	1015.76098	-386.51082	41.64885	1048.51426	-458.10228	155.40519	1027.02092	-442.21220	295.06023	955.61411	-429.72262	284.05060	934.68973	-453.87556	-9.87572	868.57139	-70.30383	-54.95377	848.88682	-270.83543	-2.71282	859.14931	-89.52025	-42.96700	856.37735	-250.88071	
